<svg xmlns="http://www.w3.org/2000/svg" width="16" height="16" fill="none" xmlns:v="https://vecta.io/nano"><g clip-path="url(#A)"><path  d="M15.062.938A3.18 3.18 0 0 0 12.799 0a3.18 3.18 0 0 0-2.264.938L1.588 9.884c-.076.076-.131.171-.16.274L.023 15.207c-.061.218.001.451.161.611.119.118.278.182.441.182.057 0 .114-.008.171-.024l5.049-1.434c.213-.06.378-.229.434-.444s-.006-.442-.162-.599l-3.183-3.192 7.416-7.416 2.758 2.758-5.677 5.662c-.244.244-.245.639-.001.884s.64.245.884.001l6.749-6.731A3.18 3.18 0 0 0 16 3.201a3.18 3.18 0 0 0-.938-2.264zM4.481 13.63l-2.955.84.828-2.973 2.128 2.134zm9.698-9.049l-.186.186-2.759-2.759.186-.186a1.94 1.94 0 0 1 2.759 0 1.94 1.94 0 0 1 .572 1.38 1.94 1.94 0 0 1-.571 1.379z" fill="#696969"/></g><defs><clipPath id="A"><path fill="#fff" d="M0 0h16v16H0z"/></clipPath></defs></svg>