<svg xmlns="http://www.w3.org/2000/svg" width="20" height="20" fill="none" xmlns:v="https://vecta.io/nano"><g clip-path="url(#A)" fill="#696969"><path d="M12.887.116c-.092-.097-.217-.155-.348-.155H4.737a2.64 2.64 0 0 0-2.628 2.623v14.754a2.64 2.64 0 0 0 2.628 2.623h10.589a2.64 2.64 0 0 0 2.628-2.623V5.623a.52.52 0 0 0-.14-.338L12.887.116zm.14 1.551l3.3 3.464h-2.145a1.15 1.15 0 0 1-1.155-1.15V1.666zm2.3 17.329H4.737c-.903 0-1.662-.749-1.662-1.657V2.584c0-.903.754-1.657 1.662-1.657h7.324V3.98c0 1.174.947 2.116 2.121 2.116h2.807v11.242a1.67 1.67 0 0 1-1.662 1.657zm-1.32-3.335H6.055c-.266 0-.483.217-.483.483s.217.483.483.483h7.957c.266 0 .483-.217.483-.483s-.217-.483-.488-.483zm-4.329-1.734c.092.097.217.155.353.155s.261-.058.353-.155l2.831-3.039a.482.482 0 1 0-.705-.657l-1.995 2.14V7.096c0-.266-.217-.483-.483-.483s-.483.217-.483.483v5.275l-1.99-2.14a.48.48 0 1 0-.705.657l2.826 3.039z"/></g><defs><clipPath id="A"><path fill="#fff" d="M0 0h20v20H0z"/></clipPath></defs></svg>