<svg xmlns="http://www.w3.org/2000/svg" width="18" height="18" fill="#fff" xmlns:v="https://vecta.io/nano"><path d="M9 3.869c-1.843 0-3.342 1.499-3.342 3.342S7.157 10.553 9 10.553s3.342-1.499 3.342-3.342S10.843 3.869 9 3.869zm0 5.276a1.94 1.94 0 0 1-1.935-1.935A1.94 1.94 0 0 1 9 5.276a1.94 1.94 0 0 1 1.935 1.935A1.94 1.94 0 0 1 9 9.146z"/><path d="M9 0a7.22 7.22 0 0 0-7.211 7.211v.199c0 2.011 1.153 4.354 3.427 6.965 1.648 1.893 3.274 3.212 3.342 3.267L9 18l.442-.357c.068-.055 1.694-1.375 3.342-3.267 2.274-2.611 3.427-4.954 3.427-6.965v-.199A7.22 7.22 0 0 0 9 0zm5.804 7.41c0 3.398-4.379 7.512-5.804 8.761-1.426-1.249-5.804-5.363-5.804-8.761v-.199c0-3.2 2.604-5.804 5.804-5.804s5.804 2.604 5.804 5.804v.199z"/></svg>