<svg xmlns="http://www.w3.org/2000/svg" width="117" height="36" fill="#fff" xmlns:v="https://vecta.io/nano"><path d="M50.457 10.771h2.782V24h-2.782v-5.438H44.79V24h-2.782V10.771h2.782v5.402h5.666v-5.402zm10.294 13.413c-1.014 0-1.914-.192-2.699-.577s-1.404-.949-1.855-1.694c-.445-.745-.668-1.62-.668-2.628 0-1.508.482-2.698 1.447-3.571s2.223-1.309 3.775-1.309c1.558 0 2.819.436 3.784 1.309s1.447 2.063 1.447 3.571c0 1.514-.482 2.71-1.447 3.589-.965.873-2.226 1.309-3.784 1.309zm-.028-2.097c.779 0 1.407-.256 1.883-.769.482-.513.723-1.19.723-2.033s-.241-1.52-.723-2.032c-.476-.513-1.104-.769-1.883-.769-.748 0-1.36.259-1.836.778-.47.513-.705 1.187-.705 2.023s.235 1.514.705 2.033c.476.513 1.088.769 1.836.769zm13.568-7.498h2.671V24H74.43l-.065-1.135c-.705.879-1.716 1.318-3.033 1.318-1.144 0-2.022-.281-2.634-.842-.612-.568-.918-1.373-.918-2.417v-6.335h2.68v5.768c0 .586.158 1.016.473 1.291.322.275.736.412 1.243.412.618 0 1.122-.177 1.512-.531.396-.36.597-.943.603-1.749v-5.191zm12.4 0l-4.192 7.379h4.062V24h-7.855l4.173-7.379H79.03v-2.033h7.66zm3.199-1.41a1.52 1.52 0 0 1-1.094-.439 1.46 1.46 0 0 1-.454-1.08 1.42 1.42 0 0 1 .454-1.062 1.52 1.52 0 0 1 1.094-.449 1.48 1.48 0 0 1 1.076.449 1.42 1.42 0 0 1 .454 1.062 1.46 1.46 0 0 1-.454 1.08c-.303.293-.662.439-1.076.439zM88.527 24v-9.412h2.689V24h-2.689zm11.083-9.594c1.144 0 2.021.284 2.634.851.612.562.918 1.364.918 2.408V24h-2.681v-5.768c0-.592-.16-1.025-.482-1.3-.315-.275-.723-.412-1.224-.412a2.54 2.54 0 0 0-.797.119c-.241.079-.464.204-.668.375-.204.165-.365.4-.482.705-.111.305-.17.668-.176 1.09V24H93.98v-9.412h2.671v1.044c.705-.818 1.691-1.227 2.959-1.227zm12.715.183h2.541v8.707c0 .897-.121 1.678-.362 2.344-.235.665-.578 1.199-1.029 1.602a4.29 4.29 0 0 1-1.586.906c-.606.195-1.299.293-2.078.293-2.516 0-4.155-.974-4.915-2.921l2.217-.934c.272.616.615 1.071 1.029 1.364s.937.44 1.567.44c1.651 0 2.476-.967 2.476-2.902v-1.099c-.284.385-.686.696-1.205.934a4.05 4.05 0 0 1-1.688.348 4.35 4.35 0 0 1-1.679-.33c-.525-.226-.986-.537-1.382-.934-.395-.403-.711-.897-.945-1.483s-.344-1.221-.344-1.904a5.14 5.14 0 0 1 .344-1.904c.234-.586.55-1.074.945-1.465.402-.391.866-.696 1.392-.916a4.37 4.37 0 0 1 1.687-.33c.656 0 1.243.131 1.763.394.525.256.921.601 1.187 1.035l.065-1.245zm-4.1 6.226c.476.482 1.061.723 1.753.723a2.35 2.35 0 0 0 1.753-.732 2.46 2.46 0 0 0 .714-1.785 2.47 2.47 0 0 0-.714-1.794c-.47-.488-1.054-.733-1.753-.733-.705 0-1.292.241-1.762.723-.464.476-.695 1.077-.695 1.804 0 .714.235 1.312.704 1.794zM7.322 17.704v-7.281l7.873-4.46 7.873 4.46v11.275H8.949 1.634l-.762-1.8a14.69 14.69 0 0 1-.598-7.814A14.72 14.72 0 0 1 4.45 4.366C7.42 1.456 11.309 0 15.195 0c3.892 0 7.781 1.456 10.744 4.367s4.449 6.731 4.449 10.544a14.72 14.72 0 0 1-4.449 10.545L15.195 36 4.451 25.458c-.454-.446-.885-.925-1.279-1.425H6.36l8.835 8.674 9.068-8.9a12.43 12.43 0 0 0 3.754-8.897c0-3.219-1.253-6.44-3.754-8.897s-5.789-3.687-9.068-3.687S8.633 3.556 6.13 6.01a12.43 12.43 0 0 0-3.524 6.505 12.42 12.42 0 0 0 .595 6.846h17.493V11.76l-5.498-3.117L9.7 11.76v5.949H7.322v-.006z"/></svg>