<svg xmlns="http://www.w3.org/2000/svg" width="18" height="18" fill="none" xmlns:v="https://vecta.io/nano"><path d="M12.937 18c-.581 0-1.157-.103-1.721-.307-2.482-.902-4.786-2.37-6.662-4.246S1.209 9.266.307 6.784a4.98 4.98 0 0 1-.254-2.447c.114-.774.413-1.525.867-2.173S1.984.973 2.677.599A5.01 5.01 0 0 1 5.077 0c.265 0 .494.185.55.445l.883 4.12c.04.187-.017.381-.152.516L4.849 6.589c1.423 2.829 3.732 5.139 6.562 6.562l1.509-1.509c.135-.135.329-.192.516-.152l4.12.883c.259.056.445.285.445.55a5.01 5.01 0 0 1-.599 2.4c-.373.694-.914 1.301-1.564 1.757s-1.399.754-2.173.867a5 5 0 0 1-.727.053zM4.628 1.15c-1.125.124-2.123.714-2.786 1.66-.745 1.064-.919 2.373-.477 3.59A17.06 17.06 0 0 0 11.6 16.635c1.218.442 2.526.268 3.59-.477.946-.663 1.536-1.661 1.66-2.786l-3.352-.718-1.575 1.576a.56.56 0 0 1-.637.111 15.93 15.93 0 0 1-7.627-7.627.56.56 0 0 1 .111-.637l1.576-1.575-.718-3.352z" fill="#fff"/></svg>