<svg xmlns="http://www.w3.org/2000/svg" xmlns:xlink="http://www.w3.org/1999/xlink" width="16" height="16" fill="none" xmlns:v="https://vecta.io/nano"><g fill="#696969"><path d="M13.25 2H10.5v-.5A1.5 1.5 0 0 0 9 0H7a1.5 1.5 0 0 0-1.5 1.5V2H2.75A1.25 1.25 0 0 0 1.5 3.25V5a.5.5 0 0 0 .5.5h.273l.432 9.071A1.5 1.5 0 0 0 4.204 16h7.593a1.5 1.5 0 0 0 1.498-1.429l.432-9.071H14a.5.5 0 0 0 .5-.5V3.25A1.25 1.25 0 0 0 13.25 2zM6.5 1.5A.5.5 0 0 1 7 1h2a.5.5 0 0 1 .5.5V2h-3v-.5zm-4 1.75A.25.25 0 0 1 2.75 3h10.5a.25.25 0 0 1 .25.25V4.5h-11V3.25zm9.796 11.274a.5.5 0 0 1-.499.476H4.204a.5.5 0 0 1-.499-.476L3.274 5.5h9.451l-.43 9.024z"/><use xlink:href="#B"/><use xlink:href="#B" x="2.5"/><use xlink:href="#B" x="-2.5"/></g><defs ><path id="B" d="M8 14a.5.5 0 0 0 .5-.5V7a.5.5 0 1 0-1 0v6.5a.5.5 0 0 0 .5.5z"/></defs></svg>