<svg xmlns="http://www.w3.org/2000/svg" width="14" height="13" fill="none" xmlns:v="https://vecta.io/nano"><path d="M7.125 3.296c-1.75 0-3.145 1.422-3.145 3.145 0 1.75 1.395 3.145 3.145 3.145 1.723 0 3.145-1.395 3.145-3.145 0-1.723-1.422-3.145-3.145-3.145zm0 5.195A2.05 2.05 0 0 1 5.074 6.44c0-1.121.902-2.023 2.051-2.023A2.02 2.02 0 0 1 9.148 6.44c0 1.148-.902 2.051-2.023 2.051zm3.992-5.305c0-.41-.328-.738-.738-.738s-.738.328-.738.738.328.738.738.738.738-.328.738-.738zm2.078.738c-.055-.984-.273-1.859-.984-2.57S10.625.425 9.641.37a78.01 78.01 0 0 0-5.059 0c-.984.055-1.832.273-2.57.984-.711.711-.93 1.586-.984 2.57-.055 1.012-.055 4.047 0 5.059.055.984.273 1.832.984 2.57.738.711 1.586.93 2.57.984 1.012.055 4.047.055 5.059 0 .984-.055 1.859-.274 2.57-.984.711-.738.93-1.586.984-2.57.055-1.012.055-4.047 0-5.059zm-1.312 6.125c-.191.547-.629.957-1.148 1.176-.82.328-2.734.246-3.609.246-.902 0-2.816.082-3.609-.246-.547-.219-.957-.629-1.176-1.176-.328-.793-.246-2.707-.246-3.609 0-.875-.082-2.789.246-3.609a2.11 2.11 0 0 1 1.176-1.148c.793-.328 2.707-.246 3.609-.246.875 0 2.789-.082 3.609.246.519.191.93.629 1.148 1.148.328.82.246 2.734.246 3.609 0 .902.082 2.816-.246 3.609z" fill="#fff"/></svg>