<svg xmlns="http://www.w3.org/2000/svg" width="14" height="13" fill="none" xmlns:v="https://vecta.io/nano"><path d="M12.551 3.597c.547-.41 1.039-.902 1.422-1.477-.492.219-1.066.383-1.641.438.602-.355 1.039-.902 1.258-1.586-.547.328-1.176.574-1.805.711A2.87 2.87 0 0 0 9.68.78a2.87 2.87 0 0 0-2.871 2.871c0 .219.027.438.082.656A8.33 8.33 0 0 1 .957 1.3c-.246.41-.383.902-.383 1.449 0 .984.492 1.859 1.285 2.379-.465-.027-.93-.137-1.313-.355V4.8c0 1.395.984 2.543 2.297 2.816-.219.055-.492.109-.738.109-.191 0-.355-.027-.547-.055.355 1.148 1.422 1.969 2.68 1.996-.984.766-2.215 1.231-3.555 1.231-.246 0-.465-.027-.684-.055 1.258.82 2.762 1.285 4.402 1.285 5.277 0 8.148-4.348 8.148-8.148v-.383z" fill="#fff"/></svg>