<svg xmlns="http://www.w3.org/2000/svg" width="16" height="16" fill="none" xmlns:v="https://vecta.io/nano"><path d="M14.731 10.157c-.53-.466-1.173-.869-1.912-1.197-.316-.14-.685.002-.825.317s.002.685.317.825a6.25 6.25 0 0 1 1.594.993 2.49 2.49 0 0 1 .844 1.873v1.156c0 .345-.28.625-.625.625H1.875c-.345 0-.625-.28-.625-.625v-1.156a2.49 2.49 0 0 1 .844-1.873C2.726 10.541 4.566 9.25 8 9.25a4.63 4.63 0 0 0 4.625-4.625A4.63 4.63 0 0 0 8 0a4.63 4.63 0 0 0-4.625 4.625A4.62 4.62 0 0 0 5.183 8.29c-2.01.442-3.261 1.292-3.914 1.866C.463 10.865 0 11.89 0 12.969v1.156A1.88 1.88 0 0 0 1.875 16h12.25A1.88 1.88 0 0 0 16 14.125v-1.156a3.74 3.74 0 0 0-1.269-2.812zM4.625 4.625A3.38 3.38 0 0 1 8 1.25a3.38 3.38 0 0 1 3.375 3.375A3.38 3.38 0 0 1 8 8a3.38 3.38 0 0 1-3.375-3.375z" fill="#fff"/></svg>